<svg data-v-0dd9719b="" version="1.0" xmlns="http://www.w3.org/2000/svg" xmlns:xlink="http://www.w3.org/1999/xlink" width="100%" height="100%" viewBox="0 0 340.000000 250.000000" preserveAspectRatio="xMidYMid meet" color-interpolation-filters="sRGB" style="margin: auto;"> <rect data-v-0dd9719b="" x="0" y="0" width="100%" height="100%" fill="#fff" fill-opacity="1" class="background"></rect> <rect data-v-0dd9719b="" x="0" y="0" width="100%" height="100%" fill="url(#watermark)" fill-opacity="1" class="watermarklayer"></rect> <g data-v-0dd9719b="" fill="#333" class="icon-text-wrapper icon-svg-group iconsvg" transform="translate(48.73500061035156,102.04500007629395)"><g class="iconsvg-imagesvg" transform="translate(0,3.819295883178711)"><g><rect fill="#333" fill-opacity="0" stroke-width="2" x="0" y="0" width="60" height="38.27140806888853" class="image-rect"></rect> <svg x="0" y="0" width="60" height="38.27140806888853" filtersec="colorsb5811197862" class="image-svg-svg primary" style="overflow: visible;"><svg xmlns="http://www.w3.org/2000/svg" viewBox="0.0019365549087524414 -0.001349779311567545 233.8005828857422 149.13134765625"><path d="M103.65 102.15C96.9 111 90.31 119.7 82.82 127.67c-6.9 7.34-14.17 14.25-23.47 18.55a29.88 29.88 0 0 1-12.79 2.91H1.99c-2.35 0-2.36-.07-1.35-2.14 5-10.16 9.91-20.33 14.8-30.52a2.65 2.65 0 0 1 2.81-1.69c18.31 0 36.63-.26 54.93.13 11.41.25 20.66-3.84 28.68-11.5.49-.47.88-1.12 1.79-1.26z" fill="#157abe"></path><path d="M111.64 86.42c2.59-3.32 5-6.4 7.38-9.43 6.53-8.16 13.31-16.08 21.32-22.84 6.17-5.21 12.79-9.61 20.9-11.24a20 20 0 0 1 4-.3h46.11c2.1 0 2.11 0 1.15 2-4.84 9.88-9.72 19.75-14.49 29.66a3.72 3.72 0 0 1-4 2.4c-18.51-.08-37 .11-55.53-.11-9.4-.12-17.37 3-24.5 8.86a2.77 2.77 0 0 1-2.34 1z" fill="#f57134"></path><path d="M122.27 62.58c-3.92 5.51-8 10.5-12.19 15.42-6.46 7.63-13.27 14.93-21.48 20.76A40.83 40.83 0 0 1 73.05 106a23.55 23.55 0 0 1-4.58.39H22.93c-2.18 0-2.2 0-1.28-1.93 5-10.11 9.92-20.22 14.8-30.36a2.59 2.59 0 0 1 2.75-1.72c19.22.05 38.43 0 57.65.08a33.29 33.29 0 0 0 19.9-6.46 19.88 19.88 0 0 0 4.07-3.17c.29-.36.68-.26 1.45-.25z" fill="#157abe"></path><path d="M133.93 43.23c-.16-1.1.58-1.55 1-2.11 8-10.38 16.2-20.65 26.22-29.23 6-5.16 12.52-9.54 20.45-11.3a25.57 25.57 0 0 1 5.73-.59h44.19c2.65 0 2.73.17 1.57 2.52q-7.31 14.81-14.54 29.62a2.37 2.37 0 0 1-2.45 1.66c-.77 0-1.54.07-2.3.07-18.32 0-36.64.08-55 0-8.73-.05-16.24 3-23 8.26-.41.31-.8.64-1.22.93a2.73 2.73 0 0 1-.65.17zM91.28 128.37c2.19-2.78 4.35-5.57 6.56-8.32 6.48-8 13.12-15.92 21-22.66 6-5.16 12.4-9.73 20.32-11.55a25.82 25.82 0 0 1 5.88-.76h44.79c2.76 0 2.84 0 1.53 2.39-6.42 11.49-14.94 20.9-26.87 26.86a44.56 44.56 0 0 1-20.38 4.73c-9 0-18.07.08-27.1 0a33.74 33.74 0 0 0-20.65 6.57c-1.53 1.09-3.11 2.12-4.67 3.17z" fill="#f57134"></path><path d="M102.7 29.92c5 0 10-.05 15 0 8.46.11 15.7-3 22.29-8.07.51-.39 1.06-1.41 1.68-.8s-.39 1.2-.78 1.71c-7.55 10-15.51 19.73-24.93 28.1-5.63 5-11.71 9.34-19 11.64a24.55 24.55 0 0 1-7.36 1.2H43.68c-.83 0-2.48.54-1.38-1.44C49 50.1 57.91 40.14 70.68 34.09a43.1 43.1 0 0 1 19-4.17c4.32.08 8.67 0 13.02 0zM142.22 20c.43-.24.59 0 .55.11a1.34 1.34 0 0 1-.44.56c-.24.19-.39-.12-.37-.21a1.54 1.54 0 0 1 .26-.46z" fill="#157abe"></path></svg></svg> <!----></g></g> <g transform="translate(67,0)"><g data-gra="path-name" fill-rule="" class="tp-name iconsvg-namesvg"><g transform="scale(1)"><g><path d="M17.66 5.32L17.66 5.32 13.7 5.32 13.7-26.99 17.66-26.99 17.66 5.32ZM28.7-25.03L28.7-25.03 2.66-25.03 2.66-28.95 28.7-28.95 28.7-25.03ZM38.28-6.32L38.28 5.02 34.21 4.97 34.21-25.28 33.06-25.28 33.06-29.3 38.28-29.3 38.28-14.75Q39.58-15.75 41.11-16.33 42.64-16.91 44.4-16.91L44.4-16.91Q46.51-16.91 48.34-16.08 50.17-15.25 51.55-13.8 52.93-12.34 53.73-10.41 54.53-8.48 54.53-6.32L54.53-6.32 54.53 4.97 50.47 4.97 50.47-6.32Q50.47-7.68 49.99-8.88 49.52-10.08 48.69-10.96 47.86-11.84 46.76-12.37 45.65-12.89 44.4-12.89L44.4-12.89Q43.14-12.89 42.02-12.37 40.89-11.84 40.06-10.96 39.23-10.08 38.75-8.88 38.28-7.68 38.28-6.32L38.28-6.32ZM62.21-15.85L62.21 5.07 58.09 5.07 58.09-15.85 62.21-15.85ZM62.21-24.03L62.21-19.57 58.09-19.57 58.09-24.03 62.21-24.03ZM69.83-8.68L69.83 5.12 65.72 5.12 65.72-17.76 69.83-17.76 69.83-16Q71.04-16.86 72.52-17.36 74-17.86 75.6-17.86L75.6-17.86 75.6-13.8Q74.5-13.8 73.49-13.39 72.49-12.99 71.74-12.32 70.99-11.64 70.48-10.69 69.98-9.73 69.83-8.68L69.83-8.68ZM88.29 5.17L88.29 5.17Q86.09 5.17 84.13 4.29 82.17 3.41 80.72 1.86 79.26 0.3 78.41-1.73 77.56-3.76 77.56-6.12L77.56-6.12Q77.56-8.43 78.41-10.48 79.26-12.54 80.72-14.07 82.17-15.6 84.13-16.48 86.09-17.36 88.29-17.36L88.29-17.36Q91.25-17.36 93.91-15.65L93.91-15.65 93.91-25.48 91.56-25.48 91.56-29.4 97.88-29.4 97.88 5.27 93.91 5.27 93.91 3.46Q91.35 5.17 88.29 5.17ZM88.29-13.39L88.29-13.39Q86.89-13.39 85.66-12.82 84.43-12.24 83.5-11.26 82.58-10.28 82.05-8.95 81.52-7.63 81.52-6.12L81.52-6.12Q81.52-4.62 82.05-3.26 82.58-1.91 83.5-0.93 84.43 0.05 85.66 0.63 86.89 1.2 88.29 1.2L88.29 1.2Q90 1.2 91.45 0.35 92.91-0.5 93.91-1.96L93.91-1.96 93.91-10.18Q92.91-11.69 91.45-12.54 90-13.39 88.29-13.39ZM127.88 5.77L127.88 5.77 104.3 5.77 104.3-26.54 108.21-26.54 108.21 1.86 127.88 1.86 127.88 5.77ZM124.92-9.53L124.92-9.53 104.65-9.53 104.65-13.49 124.92-13.49 124.92-9.53ZM127.53-24.83L127.53-24.83 102.99-24.83 102.99-28.8 127.53-28.8 127.53-24.83ZM154.16-13.55L139.21 16.51 135.75 16.51 135.75 12.54 136.81 12.54 141.42 3.26 133.6-13.55 132.64-13.55 132.64-17.51 136.15-17.51 143.63-1.25 151.71-17.51 155.22-17.51 155.22-13.55 154.16-13.55ZM168.61 5.67L168.61 5.67Q166.3 5.67 164.42 4.82 162.54 3.96 161.21 2.41 159.88 0.85 159.16-1.35 158.43-3.56 158.43-6.27L158.43-6.27Q158.43-8.28 159.11-10.26 159.78-12.24 161.09-13.8 162.39-15.35 164.22-16.3 166.05-17.26 168.41-17.26L168.41-17.26Q170.52-17.26 172.32-16.45 174.13-15.65 175.43-14.22 176.74-12.79 177.47-10.81 178.19-8.83 178.19-6.47L178.19-6.47 178.19-4.41 162.64-4.41Q162.79-3.41 163.12-2.36 163.44-1.3 164.12-0.43 164.8 0.45 165.9 1.03 167.01 1.61 168.61 1.61L168.61 1.61Q169.52 1.61 170.39 1.2 171.27 0.8 172.02 0.25 172.78-0.3 173.35-0.88 173.93-1.45 174.18-1.81L174.18-1.81 177.39 0.75Q177.24 0.95 176.51 1.73 175.79 2.51 174.61 3.39 173.43 4.26 171.9 4.97 170.37 5.67 168.61 5.67ZM168.41-13.19L168.41-13.19Q166.2-13.19 164.77-11.79 163.34-10.38 162.79-8.48L162.79-8.48 173.88-8.48Q173.43-10.38 172.1-11.79 170.77-13.19 168.41-13.19Z" transform="translate(-2.6600000858306885, 29.399999618530273)"></path></g> <!----> <!----> <!----> <!----> <!----> <!----> <!----></g></g> <!----></g></g><defs v-gra="od"></defs></svg>